<?xml version="1.0" encoding="UTF-8"?>
<svg width="24px" height="24px" viewBox="0 0 24 24" version="1.1" xmlns="http://www.w3.org/2000/svg" xmlns:xlink="http://www.w3.org/1999/xlink">
    <!-- Generator: sketchtool 64 (101010) - https://sketch.com -->
    <title>F090F48F-3738-451A-8E97-DC3DBB921C28</title>
    <desc>Created with sketchtool.</desc>
    <g id="Mobile" stroke="none" stroke-width="1" fill="none" fill-rule="evenodd">
        <g id="mobile_09_moji_dogadaji_review_3" transform="translate(-264.000000, -185.000000)" fill="#FFFFFF" fill-rule="nonzero">
            <g id="Group-3" transform="translate(16.000000, 160.000000)">
                <g id="close-cross-in-circular-outlined-interface-button" transform="translate(248.000000, 25.000000)">
                    <path d="M3.52861224,20.4677551 C4.62808163,21.5671837 5.90881633,22.4305306 7.33534694,23.0339184 C8.81318367,23.6589796 10.3819592,23.9758776 11.9981633,23.9758776 C13.6143265,23.9758776 15.1831429,23.6589796 16.6609796,23.0339184 C18.0874694,22.4305306 19.3682449,21.5671429 20.4677551,20.4677551 C21.5671837,19.3682449 22.4306122,18.0875102 23.0339184,16.6609796 C23.6589796,15.1831429 23.9759592,13.6143265 23.9759592,11.9982041 C23.9759592,10.3819592 23.6589796,8.81318367 23.0339184,7.33538776 C22.4306122,5.90885714 21.5671429,4.62812245 20.4677551,3.52865306 C19.3682449,2.42918367 18.0875102,1.56579592 16.6609796,0.96244898 C15.183102,0.337346939 13.6143265,0.0204489796 11.9981633,0.0204489796 C10.3819592,0.0204489796 8.81318367,0.337387755 7.33534694,0.96244898 C5.90881633,1.56579592 4.62808163,2.42922449 3.52861224,3.52865306 C2.42914286,4.62808163 1.5657551,5.90885714 0.962367347,7.33534694 C0.337346939,8.81318367 0.0204081633,10.3819592 0.0204081633,11.9982041 C0.0204081633,13.6143673 0.337346939,15.1831429 0.962408163,16.6609796 C1.5657551,18.0875102 2.42918367,19.3682449 3.52861224,20.4677551 Z M11.9981633,1.76902041 C17.6475918,1.76902041 22.2273061,6.34877551 22.2273061,11.9982041 C22.2273061,17.6475918 17.6475918,22.2273061 11.9981633,22.2273061 C6.34873469,22.2273061 1.76897959,17.6475918 1.76897959,11.9982041 C1.76897959,6.34877551 6.34873469,1.76902041 11.9981633,1.76902041 Z" id="Shape"></path>
                    <path d="M7.5477551,16.4485306 C7.7184898,16.6193061 7.94220408,16.7046531 8.16595918,16.7046531 C8.38971429,16.7046531 8.61346939,16.6192653 8.78416327,16.4485306 L11.9981224,13.2345714 L15.2121224,16.4485306 C15.3828163,16.6193061 15.6065714,16.7046531 15.8303265,16.7046531 C16.0540816,16.7046531 16.2777959,16.6192653 16.4485306,16.4485306 C16.7899592,16.1071837 16.7899592,15.5535918 16.4485306,15.2121633 L13.2344898,11.9982041 L16.448449,8.78420408 C16.7898776,8.44277551 16.7898776,7.88918367 16.448449,7.54779592 C16.107102,7.20636735 15.5535102,7.20636735 15.2120816,7.54779592 L11.9980816,10.7617959 L8.78412245,7.54779592 C8.44269388,7.20636735 7.88910204,7.20636735 7.54771429,7.54779592 C7.20628571,7.88922449 7.20628571,8.44277551 7.54771429,8.78420408 L10.7617143,11.9982041 L7.54771429,15.2121633 C7.20632653,15.5535918 7.20632653,16.1071837 7.5477551,16.4485306 Z" id="Path"></path>
                </g>
            </g>
        </g>
    </g>
</svg>