<svg xmlns="http://www.w3.org/2000/svg" width="14" height="14" viewBox="0 0 14 14">
    <g fill="none" fill-rule="evenodd">
        <path fill="#333" d="M18.292 7.118c.391-.391.395-1.02.003-1.413-.39-.39-1.022-.388-1.413.003L12 10.59 7.118 5.708c-.391-.391-1.02-.395-1.413-.003-.39.39-.388 1.022.003 1.413L10.59 12l-4.882 4.882c-.391.391-.395 1.02-.003 1.413.39.39 1.022.388 1.413-.003L12 13.41l4.882 4.882c.391.391 1.02.395 1.413.003.39-.39.388-1.022-.003-1.413L13.41 12l4.882-4.882z" transform="translate(-5 -5)"/>
    </g>
</svg>
