<svg xmlns="http://www.w3.org/2000/svg" width="55" height="100" viewBox="0 0 55 100">
    <g fill="none" fill-rule="evenodd" opacity=".2">
        <path fill="#FFA400" fill-rule="nonzero" d="M76.74 73.023c.718-.717 1.16-1.723 1.16-2.846V13.333c0-1.123-.442-2.126-1.16-2.843-.727-.728-1.74-1.176-2.865-1.176H13.223c-1.125 0-2.136.451-2.863 1.176-.717.714-1.16 1.72-1.16 2.843V70.18c0 1.113.45 2.119 1.177 2.846v.017c.718.717 1.723 1.16 2.846 1.16h32.89l1.372 1.691 7.014 8.65 6.225-8.47 1.372-1.868H73.877c1.126 0 2.131-.443 2.846-1.16l.017-.023zm10.27-2.846c0 3.606-1.468 6.885-3.846 9.27l-.01.01-.007.01c-2.385 2.378-5.665 3.847-9.27 3.847h-7.195L58.346 94.66l-3.486 4.745-3.702-4.566-9.347-11.525H13.223c-3.61 0-6.891-1.474-9.277-3.857l-.01.01C1.561 77.092.09 73.807.09 70.18V13.333c0-3.615 1.476-6.897 3.864-9.285C6.329 1.673 9.608.202 13.224.202h60.653c3.615 0 6.892 1.471 9.27 3.846 2.387 2.386 3.864 5.672 3.864 9.285v56.844z"/>
        <path fill="#C10230" d="M19.368 19.577h48.364c2.505 0 4.554 2.05 4.554 4.554 0 2.505-2.049 4.554-4.554 4.554H19.368c-2.505 0-4.554-2.05-4.554-4.554 0-2.502 2.05-4.554 4.554-4.554"/>
        <path fill="#15698F" d="M19.368 37.447h48.364c2.505 0 4.554 2.049 4.554 4.553 0 2.505-2.049 4.554-4.554 4.554H19.368c-2.505 0-4.554-2.049-4.554-4.554 0-2.504 2.05-4.553 4.554-4.553"/>
        <path fill="#641945" d="M42.013 55.525h25.72c2.504 0 4.553 2.049 4.553 4.556 0 2.505-2.049 4.554-4.554 4.554h-25.72c-2.504 0-4.553-2.049-4.553-4.554 0-2.507 2.05-4.556 4.554-4.556"/>
    </g>
</svg>
