<svg xmlns="http://www.w3.org/2000/svg" width="320" height="106" viewBox="0 0 320 106">
    <defs>
        <radialGradient id="prefix__a" cx="50.001%" cy="49.999%" r="209.947%" fx="50.001%" fy="49.999%" gradientTransform="matrix(.29602 0 0 1 .352 0)">
            <stop offset="0%" stop-color="#FFF"/>
            <stop offset="85.29%" stop-color="#FFF" stop-opacity=".147"/>
            <stop offset="100%" stop-color="#FFF" stop-opacity="0"/>
        </radialGradient>
    </defs>
    <g fill="none" fill-rule="evenodd">
        <path fill="url(#prefix__a)" fill-rule="nonzero" d="M346.6 105.561H10.007C4.503 105.561 0 101.058 0 95.555v-85.55C0 4.504 4.503 0 10.006 0h336.586c5.503 0 10.006 4.503 10.006 10.006v85.55c.008 5.502-4.494 10.005-9.997 10.005z" transform="translate(-19)"/>
        <g>
            <path fill="#C10230" fill-rule="nonzero" d="M59.409 20.395L63.253 20.395 63.253 12.24 67.714 12.24 67.714 9.039 63.253 9.039 63.253 3.961 68.006 3.961 68.006.617 59.409.617zM76.31 3.727c1.735 0 2.26 3.144 2.26 6.604 0 4.019-.617 6.954-2.226 6.954-1.56 0-2.41-2.285-2.41-6.779 0-4.252.85-6.779 2.377-6.779m.142-3.343c-4.37 0-6.513 4.669-6.513 10.064 0 5.428 1.76 10.18 6.254 10.18 3.752 0 6.395-3.018 6.395-10.472 0-4.52-1.35-9.772-6.136-9.772zM85.024.617H88.868V20.395H85.024z" transform="translate(-19) translate(35.295 27.841)"/>
            <path fill="#1A1A18" fill-rule="nonzero" d="M104.402 18.327c-.433.217-1.134.4-1.91.4-2.209 0-4.252-1.826-4.252-7.37 0-5.545 2.26-7.421 4.194-7.421.942 0 1.401.191 1.826.375l.459-1.751c-.375-.242-1.16-.459-2.26-.459-2.851 0-6.403 2.285-6.403 9.439 0 6.162 2.526 9.014 6.078 9.014 1.126 0 2.018-.192 2.585-.484l-.317-1.743zM107.687 12.54c.084-1.775.784-3.768 2.127-3.768.992 0 1.992 1.159 1.934 3.769h-4.06zm6.02 1.535c.025-.325.025-.676.025-1.16 0-2.96-1.05-5.753-3.71-5.753-2.61 0-4.386 2.635-4.386 6.863 0 3.977 1.618 6.537 4.736 6.537 1.026 0 2.126-.217 2.852-.617l-.325-1.534c-.509.3-1.268.508-2.152.508-1.509 0-3.068-.859-3.093-4.844h6.053zM115.967 20.395h2.068V12.19c0-.433.025-.833.083-1.159.267-1.4 1.101-2.126 1.96-2.126 1.509 0 1.8 1.56 1.8 3.094v8.388h2.069v-8.73c0-3.144-1.343-4.495-3.144-4.495-1.376 0-2.418.726-2.985 1.777h-.05l-.108-1.56h-1.801c.025 1.05.108 1.826.108 3.36v9.656zM127.157 4.528v2.851h-1.584v1.585h1.584v7.529c0 1.8.267 2.693.784 3.285.508.567 1.234.784 2.043.784.675 0 1.159-.083 1.534-.217l-.084-1.584c-.241.05-.508.083-.833.083-.75 0-1.376-.458-1.376-2.151V8.972h2.501V7.388h-2.501V3.944l-2.068.584zM138.405 16.31c0 .216 0 .483-.05.725-.242 1.292-1.026 1.96-1.934 1.96-.726 0-1.585-.618-1.585-2.31 0-2.827 2.502-3.01 3.577-3.01v2.634h-.008zm2.176 4.085c-.133-.834-.133-1.968-.133-2.96v-5.62c0-2.935-1.134-4.653-3.736-4.653-1.292 0-2.501.46-3.043.86l.459 1.45c.617-.4 1.342-.675 2.15-.675 1.643 0 2.069 1.209 2.069 2.96v.4c-2.935.025-5.545 1.476-5.545 4.736 0 2.235 1.342 3.71 3.093 3.71 1.1 0 2.018-.591 2.585-1.584h.084l.133 1.376h1.884zM143.325 20.395h2.067v-7.212c0-.434.025-.834.084-1.184.217-1.51 1.184-2.719 2.501-2.719.159 0 .292 0 .434.025V7.18c-.134 0-.267-.025-.434-.025-1.209 0-2.31 1.026-2.743 2.26h-.05l-.108-2.043h-1.86c.025.967.109 2.26.109 3.36v9.664zM153.222 20.395h7.454v-1.718h-5.111v-.05c.292-.592.7-1.267 1.05-1.934l4.061-7.938V7.38h-6.937v1.718h4.653v.05c-.292.592-.7 1.267-1.05 1.934l-4.12 8.047v1.267zM167.505 16.31c0 .216 0 .483-.05.725-.242 1.292-1.025 1.96-1.934 1.96-.726 0-1.584-.618-1.584-2.31 0-2.827 2.501-3.01 3.577-3.01v2.634h-.009zm2.185 4.085c-.134-.834-.134-1.968-.134-2.96v-5.62c0-2.935-1.125-4.653-3.735-4.653-1.292 0-2.501.46-3.043.86l.458 1.45c.617-.4 1.343-.675 2.151-.675 1.643 0 2.068 1.209 2.068 2.96v.4c-2.935.025-5.545 1.476-5.545 4.736 0 2.235 1.343 3.71 3.094 3.71 1.1 0 2.018-.591 2.585-1.584h.083l.133 1.376h1.885zM178.72 12.299c0-.35 0-.676.05-.992.134-1.184.967-2.368 1.91-2.368 1.642 0 2.284 2.26 2.284 4.952 0 2.635-.542 5.003-2.26 5.003-.566 0-1.509-.35-1.909-2.21-.083-.3-.083-.675-.083-1.075v-3.31h.008zm-2.068 13.266h2.068V19.11h.05c.35.725 1.05 1.51 2.26 1.51 2.043 0 4.035-1.935 4.035-6.755 0-4.277-1.509-6.695-3.768-6.695-1.026 0-2.043.483-2.744 1.884h-.05l-.108-1.667h-1.86c.026.917.109 2.067.109 4.06v14.117h.008zM191.127 8.83c1.826 0 2.177 3.069 2.177 5.053 0 2.018-.35 5.086-2.127 5.086-1.884 0-2.26-2.935-2.26-5.086 0-1.984.35-5.053 2.21-5.053m.075-1.668c-2.234 0-4.36 1.993-4.36 6.754 0 4.57 1.884 6.696 4.219 6.696 1.992 0 4.327-1.693 4.327-6.729.008-4.544-1.868-6.72-4.186-6.72zM203.493 15.8c0 .326-.025.618-.084.86-.458 1.884-1.342 2.234-1.992 2.234-1.51 0-2.21-2.21-2.21-4.953 0-2.61.592-5.002 2.31-5.002.992 0 1.8 1.184 1.934 2.526.025.292.025.592.025.859V15.8h.017zm0-14.016v6.938h-.05c-.509-1.1-1.426-1.56-2.368-1.56-2.018 0-3.928 2.152-3.928 6.78 0 4.277 1.585 6.67 3.794 6.67 1.376 0 2.285-.917 2.719-1.86h.083l.133 1.643h1.776c-.025-.75-.108-2.234-.108-3.118V1.784h-2.051zM208.42 20.395h2.068v-7.212c0-.434.025-.834.084-1.184.217-1.51 1.184-2.719 2.501-2.719.159 0 .292 0 .434.025V7.18c-.134 0-.267-.025-.434-.025-1.209 0-2.31 1.026-2.743 2.26h-.05l-.108-2.043h-1.86c.025.967.109 2.26.109 3.36v9.664zM218.343 5.687l2.126-3.627h-1.559l-1.267 2.343h-.05l-1.234-2.343h-1.56l2.127 3.627h1.417zm-4.086 14.116c.567.459 1.618.75 2.585.75 2.126 0 3.902-1.267 3.902-3.877 0-1.8-1.184-2.985-2.693-3.952-1.292-.884-1.617-1.376-1.617-2.26 0-.833.567-1.642 1.692-1.642.676 0 1.234.242 1.718.567l.567-1.56c-.542-.325-1.318-.675-2.343-.675-2.018 0-3.577 1.51-3.577 3.602 0 1.51.917 2.61 2.61 3.71 1.317.885 1.667 1.56 1.667 2.552 0 1.16-.725 1.885-1.91 1.885-.833 0-1.642-.376-2.1-.676l-.5 1.576zM224.93 1.784h-2.068v18.611h2.068v-4.92l.726-1.208 2.826 6.128h2.31l-3.736-7.53L230.5 7.38h-2.235l-2.584 4.603c-.242.434-.459.942-.7 1.45h-.05V1.785zM240.106 7.38h-2.068v8.58c0 .433-.025.833-.109 1.183-.108.592-.642 1.718-1.86 1.718-1.425 0-1.75-1.51-1.75-3.552V7.37h-2.068v8.23c0 3.227.884 5.003 3.177 5.003 1.4 0 2.393-.943 2.793-1.585h.05l.134 1.376h1.8c-.024-.967-.108-2.101-.108-3.552V7.38h.009zM58.292 44.167c.567.459 1.618.75 2.585.75 2.126 0 3.902-1.267 3.902-3.877 0-1.8-1.184-2.985-2.693-3.952-1.292-.884-1.618-1.376-1.618-2.26 0-.833.567-1.642 1.693-1.642.675 0 1.234.242 1.718.567l.567-1.56c-.542-.325-1.318-.675-2.343-.675-2.018 0-3.577 1.51-3.577 3.602 0 1.51.917 2.61 2.61 3.71 1.317.885 1.667 1.56 1.667 2.552 0 1.16-.725 1.885-1.91 1.885-.833 0-1.642-.376-2.1-.676l-.5 1.576zM67.389 28.892v2.851h-1.584v1.585h1.584v7.529c0 1.801.267 2.693.784 3.285.508.567 1.234.784 2.043.784.675 0 1.159-.083 1.534-.217l-.084-1.584c-.241.05-.508.083-.833.083-.75 0-1.376-.458-1.376-2.15v-7.722h2.501v-1.584h-2.501v-3.444l-2.068.584zM81.589 31.743H79.52v8.58c0 .434-.025.834-.108 1.184-.109.592-.642 1.718-1.86 1.718-1.426 0-1.75-1.51-1.75-3.552v-7.938h-2.069v8.23c0 3.227.884 5.003 3.177 5.003 1.401 0 2.393-.943 2.793-1.585h.05l.134 1.376h1.8c-.024-.967-.107-2.101-.107-3.552v-9.464h.008zM90.277 40.165c0 .325-.025.617-.083.859-.459 1.884-1.343 2.234-1.993 2.234-1.51 0-2.21-2.21-2.21-4.952 0-2.61.592-5.003 2.31-5.003.992 0 1.801 1.184 1.935 2.526.025.292.025.592.025.859v3.477h.016zm0-14.017v6.938h-.05c-.508-1.1-1.426-1.56-2.368-1.56-2.018 0-3.927 2.152-3.927 6.78 0 4.277 1.584 6.67 3.794 6.67 1.376 0 2.284-.917 2.718-1.86h.083l.134 1.643h1.776c-.025-.75-.109-2.234-.109-3.118V26.148h-2.05zM96.706 36.905c.083-1.776.784-3.77 2.126-3.77.992 0 1.993 1.16 1.935 3.77h-4.061zm6.028 1.534c.025-.325.025-.675.025-1.16 0-2.96-1.05-5.752-3.71-5.752-2.61 0-4.386 2.634-4.386 6.862 0 3.977 1.618 6.537 4.736 6.537 1.026 0 2.126-.217 2.852-.617l-.325-1.534c-.509.292-1.268.508-2.152.508-1.509 0-3.068-.858-3.093-4.844h6.053zM104.994 44.76h2.068v-8.206c0-.433.025-.833.083-1.159.267-1.4 1.101-2.126 1.96-2.126 1.509 0 1.8 1.56 1.8 3.094v8.388h2.069v-8.73c0-3.144-1.343-4.494-3.144-4.494-1.376 0-2.418.725-2.985 1.776h-.05l-.108-1.56h-1.801c.025 1.051.108 1.826.108 3.36v9.656zM116.184 28.892v2.851H114.6v1.585h1.584v7.529c0 1.801.267 2.693.784 3.285.508.567 1.234.784 2.043.784.675 0 1.159-.083 1.534-.217l-.084-1.584c-.241.05-.508.083-.833.083-.75 0-1.376-.458-1.376-2.15v-7.722h2.501v-1.584h-2.501v-3.444l-2.068.584zM123.58 27.032c-.676 0-1.21.542-1.21 1.343 0 .809.51 1.342 1.185 1.342.784 0 1.292-.542 1.267-1.342-.008-.8-.492-1.343-1.242-1.343m1.075 17.727V31.743h-2.067V44.76h2.067zM127.532 44.76h2.043v-8.256c0-.4.025-.783.083-1.125.242-1.376 1.101-2.101 1.935-2.101 1.534 0 1.8 1.509 1.8 2.96v8.53h2.044v-8.364c0-.433.025-.833.083-1.184.292-1.209 1.05-1.934 1.91-1.934 1.584 0 1.826 1.643 1.826 3.335v8.147h2.042v-8.639c0-3.31-1.375-4.602-3.118-4.602-.675 0-1.292.158-1.801.508-.484.325-.942.834-1.292 1.476h-.05c-.484-1.4-1.51-1.993-2.719-1.993-1.376 0-2.368.784-2.935 1.826h-.05l-.108-1.617h-1.801c.025 1.05.108 1.826.108 3.36v9.672zM149.053 40.674c0 .216 0 .483-.05.725-.242 1.292-1.026 1.96-1.935 1.96-.725 0-1.584-.618-1.584-2.31 0-2.827 2.502-3.01 3.577-3.01v2.635h-.008zm2.176 4.085c-.133-.834-.133-1.968-.133-2.96v-5.62c0-2.935-1.134-4.652-3.736-4.652-1.292 0-2.501.458-3.043.858l.458 1.451c.617-.4 1.343-.675 2.152-.675 1.642 0 2.068 1.209 2.068 2.96v.4c-2.935.025-5.545 1.476-5.545 4.736 0 2.235 1.342 3.71 3.093 3.71 1.1 0 2.018-.591 2.585-1.584h.083l.134 1.376h1.884zM159.217 27.032c-.675 0-1.209.542-1.209 1.343 0 .809.509 1.342 1.184 1.342.784 0 1.293-.542 1.268-1.342-.009-.8-.492-1.343-1.243-1.343m1.076 17.727V31.743h-2.068V44.76h2.068zM167.364 44.76h2.067v-7.213c0-.434.025-.834.084-1.184.217-1.51 1.184-2.719 2.501-2.719.159 0 .292 0 .434.025v-2.126c-.134 0-.267-.025-.434-.025-1.209 0-2.31 1.026-2.743 2.26h-.05l-.108-2.043h-1.86c.025.967.109 2.26.109 3.36v9.664zM178.745 40.674c0 .216 0 .483-.05.725-.242 1.292-1.026 1.96-1.934 1.96-.726 0-1.585-.618-1.585-2.31 0-2.827 2.502-3.01 3.577-3.01v2.635h-.008zm2.176 4.085c-.133-.834-.133-1.968-.133-2.96v-5.62c0-2.935-1.134-4.652-3.736-4.652-1.292 0-2.501.458-3.043.858l.459 1.451c.617-.4 1.342-.675 2.15-.675 1.643 0 2.069 1.209 2.069 2.96v.4c-2.935.025-5.545 1.476-5.545 4.736 0 2.235 1.342 3.71 3.093 3.71 1.101 0 2.018-.591 2.585-1.584h.084l.133 1.376h1.884zM182.672 44.76h7.455v-1.718h-5.112v-.05c.292-.592.7-1.268 1.051-1.935l4.06-7.938v-1.376h-6.937v1.718h4.653v.05c-.292.592-.7 1.267-1.05 1.935l-4.12 8.046v1.267zM191.36 31.743l3.386 13.016h1.86l3.385-13.016h-2.043l-1.618 7.313c-.191.992-.4 2.101-.542 3.177h-.083c-.159-1.134-.375-2.285-.567-3.177l-1.643-7.313h-2.134zM205.16 33.194c1.826 0 2.177 3.069 2.177 5.053 0 2.018-.35 5.086-2.127 5.086-1.884 0-2.26-2.935-2.26-5.086 0-1.984.351-5.053 2.21-5.053m.084-1.667c-2.235 0-4.361 1.992-4.361 6.753 0 4.57 1.884 6.696 4.219 6.696 1.993 0 4.328-1.693 4.328-6.729.008-4.544-1.877-6.72-4.186-6.72zM212.957 27.032c-.726 0-1.268.542-1.234 1.343-.025.809.508 1.342 1.184 1.342.783 0 1.267-.542 1.267-1.342s-.484-1.343-1.217-1.343m-3.144 23.105c.809-.025 2.068-.433 2.852-1.234.917-.967 1.317-2.234 1.317-4.978V31.743h-2.068v11.59c0 2.477-.158 3.444-.617 4.144-.433.643-1.159.86-1.75 1.026l.266 1.634zM223.07 26.148h-2.067V44.76h2.068v-4.92l.725-1.208 2.827 6.128h2.31l-3.736-7.53 3.444-5.486h-2.235l-2.585 4.603c-.242.434-.458.942-.7 1.45h-.05V26.149zM235.528 40.674c0 .216 0 .483-.05.725-.242 1.292-1.026 1.96-1.935 1.96-.725 0-1.584-.618-1.584-2.31 0-2.827 2.502-3.01 3.577-3.01v2.635h-.008zm2.176 4.085c-.133-.834-.133-1.968-.133-2.96v-5.62c0-2.935-1.126-4.652-3.736-4.652-1.292 0-2.501.458-3.043.858l.458 1.451c.618-.4 1.343-.675 2.152-.675 1.642 0 2.068 1.209 2.068 2.96v.4c-2.935.025-5.545 1.476-5.545 4.736 0 2.235 1.342 3.71 3.093 3.71 1.1 0 2.018-.591 2.585-1.584h.083l.134 1.376h1.884zM240.447 44.76h2.068v-7.213c0-.434.025-.834.084-1.184.217-1.51 1.184-2.719 2.501-2.719.159 0 .292 0 .434.025v-2.126c-.134 0-.267-.025-.434-.025-1.209 0-2.31 1.026-2.743 2.26h-.05l-.109-2.043h-1.859c.025.967.108 2.26.108 3.36v9.664zM248.144 27.032c-.676 0-1.21.542-1.21 1.343 0 .809.51 1.342 1.185 1.342.783 0 1.292-.542 1.267-1.342-.008-.8-.492-1.343-1.242-1.343m1.075 17.727V31.743h-2.068V44.76h2.068zM253.305 27.032c-.725 0-1.267.542-1.234 1.343-.025.809.509 1.342 1.184 1.342.784 0 1.267-.542 1.267-1.342-.008-.8-.492-1.343-1.217-1.343m-3.144 23.105c.81-.025 2.068-.433 2.852-1.234.917-.967 1.318-2.234 1.318-4.978V31.743h-2.068v11.59c0 2.477-.159 3.444-.617 4.144-.434.643-1.16.86-1.751 1.026l.266 1.634zM258.633 36.905c.083-1.776.784-3.77 2.126-3.77.992 0 1.993 1.16 1.935 3.77h-4.061zm6.028 1.534c.026-.325.026-.675.026-1.16 0-2.96-1.051-5.752-3.711-5.752-2.61 0-4.386 2.634-4.386 6.862 0 3.977 1.618 6.537 4.736 6.537 1.026 0 2.126-.217 2.852-.617l-.325-1.534c-.509.292-1.268.508-2.152.508-1.509 0-3.068-.858-3.093-4.844h6.053zM266.888 44.76h2.068v-7.213c0-.434.025-.834.083-1.184.217-1.51 1.184-2.719 2.501-2.719.159 0 .3 0 .434.025v-2.126c-.133 0-.267-.025-.434-.025-1.209 0-2.31 1.026-2.743 2.26h-.05l-.108-2.043h-1.86c.025.967.109 2.26.109 3.36v9.664zM278.27 40.674c0 .216 0 .483-.05.725-.242 1.292-1.026 1.96-1.935 1.96-.726 0-1.584-.618-1.584-2.31 0-2.827 2.501-3.01 3.577-3.01v2.635h-.009zm2.176 4.085c-.134-.834-.134-1.968-.134-2.96v-5.62c0-2.935-1.125-4.652-3.735-4.652-1.293 0-2.502.458-3.044.858l.459 1.451c.617-.4 1.342-.675 2.151-.675 1.643 0 2.068 1.209 2.068 2.96v.4c-2.935.025-5.545 1.476-5.545 4.736 0 2.235 1.343 3.71 3.094 3.71 1.1 0 2.017-.591 2.584-1.584h.084l.133 1.376h1.885z" transform="translate(-19) translate(35.295 27.841)"/>
            <path fill="#FFA400" fill-rule="nonzero" d="M43.25 40.699c.4-.4.65-.96.65-1.593V7.371c0-.625-.25-1.184-.65-1.584-.409-.409-.976-.659-1.6-.659H7.78c-.626 0-1.193.25-1.601.659-.4.4-.65.959-.65 1.584v31.743c0 .617.25 1.184.658 1.593v.008c.4.4.959.65 1.593.65h18.36l.767.943 3.92 4.828 3.476-4.728.767-1.042h6.579c.625 0 1.192-.25 1.593-.65l.008-.017zm5.728-1.585c0 2.018-.817 3.844-2.15 5.178l-.01.009-.008.008c-1.334 1.326-3.16 2.151-5.178 2.151h-4.019l-4.652 6.337-1.943 2.652-2.068-2.552-5.22-6.437H7.771c-2.018 0-3.852-.825-5.178-2.151l-.008.008C1.259 42.992.434 41.157.434 39.131V7.371c0-2.018.825-3.852 2.16-5.186C3.918.859 5.753.033 7.77.033h33.87c2.018 0 3.852.817 5.178 2.152 1.334 1.334 2.16 3.168 2.16 5.186v31.743z" transform="translate(-19) translate(35.295 27.841)"/>
            <path fill="#C10230" d="M11.215 10.856h27.007c1.4 0 2.543 1.143 2.543 2.543 0 1.401-1.142 2.544-2.543 2.544H11.215c-1.401 0-2.543-1.143-2.543-2.544-.009-1.4 1.142-2.543 2.543-2.543" transform="translate(-19) translate(35.295 27.841)"/>
            <path fill="#15698F" d="M11.215 20.837h27.007c1.4 0 2.543 1.142 2.543 2.543 0 1.401-1.142 2.543-2.543 2.543H11.215c-1.401 0-2.543-1.142-2.543-2.543-.009-1.4 1.142-2.543 2.543-2.543" transform="translate(-19) translate(35.295 27.841)"/>
            <path fill="#641945" d="M23.855 30.926h14.359c1.4 0 2.543 1.143 2.543 2.543 0 1.401-1.142 2.544-2.543 2.544H23.855c-1.4 0-2.543-1.143-2.543-2.544 0-1.4 1.143-2.543 2.543-2.543" transform="translate(-19) translate(35.295 27.841)"/>
        </g>
    </g>
</svg>
