<svg xmlns="http://www.w3.org/2000/svg" width="16" height="16" viewBox="0 0 16 16">
    <g fill="#333">
        <path d="M8 0C3.589 0 0 3.589 0 8s3.589 8 8 8 8-3.589 8-8-3.589-8-8-8zm0 14.545c-3.61 0-6.545-2.936-6.545-6.545C1.455 4.39 4.39 1.455 8 1.455c3.61 0 6.545 2.936 6.545 6.545 0 3.61-2.936 6.545-6.545 6.545z"/>
        <path d="M8 3.394c-.535 0-.97.435-.97.97 0 .535.435.97.97.97.534 0 .97-.435.97-.97 0-.535-.436-.97-.97-.97zM8 6.788c-.402 0-.727.326-.727.727v4.364c0 .401.325.727.727.727.402 0 .727-.326.727-.727V7.515c0-.401-.325-.727-.727-.727z"/>
    </g>
</svg>
