<svg xmlns="http://www.w3.org/2000/svg" width="19" height="18" viewBox="0 0 19 18">
    <g fill="#FFF" stroke="#FFF" stroke-width=".6">
        <path d="M15.805 11.685l-1.742 1.928h0V.563c0-.31-.252-.563-.563-.563-.311 0-.563.252-.563.563v13.05h0l-1.742-1.928c-.199-.22-.538-.237-.758-.038-.014.012-.027.025-.039.038-.226.25-.226.631 0 .882l2.36 2.612c.37.41 1.003.442 1.412.071.025-.022.05-.046.072-.071l2.36-2.612c.226-.25.226-.632 0-.882-.199-.22-.538-.237-.758-.038-.014.012-.027.025-.039.038zM1.195 4.315l1.742-1.928h0v13.05c0 .31.252.563.563.563.311 0 .563-.252.563-.563V2.387h0l1.742 1.928c.199.22.538.237.758.038.014-.012.027-.025.039-.038.226-.25.226-.631 0-.882L4.242.821C3.872.411 3.239.38 2.83.75c-.025.022-.05.046-.072.071L.398 3.433c-.226.25-.226.632 0 .882.199.22.538.237.758.038.014-.012.027-.025.039-.038z" transform="translate(1 1)"/>
    </g>
</svg>
